<?xml version="1.0" encoding="UTF-8" standalone="no"?>
<svg
   xmlns:dc="http://purl.org/dc/elements/1.1/"
   xmlns:cc="http://creativecommons.org/ns#"
   xmlns:rdf="http://www.w3.org/1999/02/22-rdf-syntax-ns#"
   xmlns:svg="http://www.w3.org/2000/svg"
   xmlns="http://www.w3.org/2000/svg"
   xmlns:sodipodi="http://sodipodi.sourceforge.net/DTD/sodipodi-0.dtd"
   xmlns:inkscape="http://www.inkscape.org/namespaces/inkscape"
   viewBox="0 0 480 480"
   height="480"
   width="480"
   xml:space="preserve"
   version="1.1"
   id="svg3390"
   sodipodi:docname="github_round.svg"
   inkscape:version="0.92.4 (5da689c313, 2019-01-14)"><sodipodi:namedview
     pagecolor="#ffffff"
     bordercolor="#666666"
     borderopacity="1"
     objecttolerance="10"
     gridtolerance="10"
     guidetolerance="10"
     inkscape:pageopacity="0"
     inkscape:pageshadow="2"
     inkscape:window-width="1366"
     inkscape:window-height="705"
     id="namedview37"
     showgrid="false"
     inkscape:zoom="0.78960257"
     inkscape:cx="17.141557"
     inkscape:cy="260.18037"
     inkscape:window-x="-8"
     inkscape:window-y="-8"
     inkscape:window-maximized="1"
     inkscape:current-layer="svg3390"
     showguides="true"
     inkscape:guide-bbox="true"><sodipodi:guide
       position="-246.26866,424.47761"
       orientation="1,0"
       id="guide1520"
       inkscape:locked="false" /></sodipodi:namedview><metadata
     id="metadata3396"><rdf:RDF><cc:Work
         rdf:about=""><dc:format>image/svg+xml</dc:format><dc:type
           rdf:resource="http://purl.org/dc/dcmitype/StillImage" /><dc:title></dc:title></cc:Work></rdf:RDF></metadata><defs
     id="defs3394"><clipPath
       id="clipPath3404"
       clipPathUnits="userSpaceOnUse"><path
         id="path3406"
         d="M 0,48 48,48 48,0 0,0 0,48 Z" /></clipPath><clipPath
       id="clipPath3416"
       clipPathUnits="userSpaceOnUse"><path
         id="path3418"
         d="M 0,48 48,48 48,0 0,0 0,48 Z" /></clipPath><clipPath
       id="clipPath3426"
       clipPathUnits="userSpaceOnUse"><path
         id="path3428"
         d="M 0,48 48,48 48,0 0,0 0,48 Z" /></clipPath><clipPath
       id="clipPath3434"
       clipPathUnits="userSpaceOnUse"><path
         id="path3436"
         d="M 0,48 48,48 48,0 0,0 0,48 Z" /></clipPath><clipPath
       id="clipPath3442"
       clipPathUnits="userSpaceOnUse"><path
         id="path3444"
         d="m -2.13623e-4,48.0002 48.000013623,0 0,-48.000047412 -48.000013623,0 0,48.000047412 z" /></clipPath><clipPath
       id="clipPath3446"
       clipPathUnits="userSpaceOnUse"><path
         id="path3448"
         d="m -2.13623e-4,47.9998 48.000013623,0 0,-47.999952588 -48.000013623,0 0,47.999952588 z" /></clipPath><clipPath
       id="clipPath3450"
       clipPathUnits="userSpaceOnUse"><path
         id="path3452"
         d="M 48,48 0,48 0,0 48,0 48,48 Z" /></clipPath><clipPath
       id="clipPath3658"
       clipPathUnits="userSpaceOnUse"><path
         id="path3660"
         d="M 0,48 48,48 48,0 0,0 0,48 Z" /></clipPath><clipPath
       id="clipPath3668"
       clipPathUnits="userSpaceOnUse"><path
         id="path3670"
         d="m -2.28882e-4,48.0001 48.000028882,0 0,-47.99997793 -48.000028882,0 0,47.99997793 z" /></clipPath><clipPath
       id="clipPath3676"
       clipPathUnits="userSpaceOnUse"><path
         id="path3678"
         d="m -2.28882e-4,48.0001 48.000028882,0 0,-47.99997793 -48.000028882,0 0,47.99997793 z" /></clipPath><clipPath
       id="clipPath3680"
       clipPathUnits="userSpaceOnUse"><path
         id="path3682"
         d="M 0,0 48,0 48,48 0,48 0,0 Z" /></clipPath></defs><path
     style="opacity:1;fill:#222123;fill-opacity:1;stroke:none;stroke-width:0.64415759;stroke-miterlimit:4;stroke-dasharray:none;stroke-opacity:1"
     d="M 250.37025,24.551556 A 225,225 0 0 0 25.370253,249.55156 225,225 0 0 0 149.85267,450.55937 l 49.79492,0.85742 c 7.2,-1.6 3.61914,-17.8875 3.61914,-22.6875 v -33.79883 c -55.4,12 -67.20117,-26.80078 -67.20117,-26.80078 -9.2,-23.2 -22.79883,-29.40039 -22.79883,-29.40039 -17.600007,-12.4 2,-12 2,-12 20,1.4 30.59961,20.59961 30.59961,20.59961 17.4,30.4 46.79922,21.40157 58.19922,16.60156 1.8,-13 7.00156,-21.80078 12.60156,-26.80078 -44.4,-5 -91,-22.20039 -91,-98.40039 0,-22.2 7.59961,-39.99922 20.59961,-54.19922 -2,-5 -9,-25.80078 2,-52.80078 0,0 16.8,-5.39961 55,20.40039 15.8,-4.4 33,-6.59961 50,-6.59961 17,0 34.2,2.19961 50,6.59961 38.2,-25.8 55,-20.40039 55,-20.40039 11,27 4,47.80078 2,52.80078 13,14.2 20.59961,31.99922 20.59961,54.19922 0,76.4 -46.80039,93.20117 -91.40039,98.20117 7.2,6.20001 13.80078,18.4 13.80078,37 v 54.79883 c 0,4.8 0,18.4 7,20 l 41.20508,1.77149 a 225,225 0 0 0 123.89844,-200.94922 225,225 0 0 0 -225,-225.000004 z"
     id="path883"
     inkscape:connector-curvature="0" /><g
     style="fill:none;fill-opacity:1;stroke:#000000;stroke-opacity:1"
     id="g3412"
     transform="matrix(1.25,0,0,-1.25,15.197519,462.99919)"><g
       style="fill:none;fill-opacity:1;stroke:#000000;stroke-opacity:1"
       id="g3414"
       clip-path="url(#clipPath3416)"><g
         style="fill:none;fill-opacity:1;stroke:#000000;stroke-opacity:1"
         id="g3420"
         transform="matrix(1,0,0,-1,0,48)"><g
           style="fill:none;fill-opacity:1;stroke:#000000;stroke-opacity:1"
           id="g3422"><g
             style="fill:none;fill-opacity:1;stroke:#000000;stroke-opacity:1"
             id="g3424"
             clip-path="url(#clipPath3426)" /></g></g></g></g><path
     inkscape:connector-curvature="0"
     style="fill:none;fill-opacity:1;stroke:#000000;stroke-width:1.25;stroke-opacity:1"
     d=""
     id="path3762" /><path
     inkscape:connector-curvature="0"
     style="fill:none;fill-opacity:1;stroke:#000000;stroke-width:1.25;stroke-opacity:1"
     d=""
     id="path3760" /><path
     inkscape:connector-curvature="0"
     style="fill:none;fill-opacity:1;stroke:#000000;stroke-width:1.25;stroke-opacity:1"
     d=""
     id="path3758" /></svg>