<?xml version="1.0" encoding="UTF-8" standalone="no"?>
<svg
   xmlns:dc="http://purl.org/dc/elements/1.1/"
   xmlns:cc="http://creativecommons.org/ns#"
   xmlns:rdf="http://www.w3.org/1999/02/22-rdf-syntax-ns#"
   xmlns:svg="http://www.w3.org/2000/svg"
   xmlns="http://www.w3.org/2000/svg"
   xmlns:sodipodi="http://sodipodi.sourceforge.net/DTD/sodipodi-0.dtd"
   xmlns:inkscape="http://www.inkscape.org/namespaces/inkscape"
   version="1.1"
   x="0px"
   y="0px"
   viewBox="0 0 100 125"
   id="svg10"
   sodipodi:docname="globe.svg"
   inkscape:version="0.92.4 (5da689c313, 2019-01-14)">
  <metadata
     id="metadata16">
    <rdf:RDF>
      <cc:Work
         rdf:about="">
        <dc:format>image/svg+xml</dc:format>
        <dc:type
           rdf:resource="http://purl.org/dc/dcmitype/StillImage" />
      </cc:Work>
    </rdf:RDF>
  </metadata>
  <defs
     id="defs14" />
  <sodipodi:namedview
     pagecolor="#ffffff"
     bordercolor="#666666"
     borderopacity="1"
     objecttolerance="10"
     gridtolerance="10"
     guidetolerance="10"
     inkscape:pageopacity="0"
     inkscape:pageshadow="2"
     inkscape:window-width="732"
     inkscape:window-height="480"
     id="namedview12"
     showgrid="false"
     inkscape:zoom="1.888"
     inkscape:cx="50"
     inkscape:cy="62.5"
     inkscape:window-x="0"
     inkscape:window-y="0"
     inkscape:window-maximized="0"
     inkscape:current-layer="svg10" />
  <g
     transform="translate(0,-952.36218)"
     id="g4">
    <path
       style="text-indent:0;text-transform:none;direction:ltr;block-progression:tb;baseline-shift:baseline;color:#000000;enable-background:accumulate;"
       d="m 50,958.36217 c 24.2769,0 44,19.72312 44,44.00003 0,24.2769 -19.7231,44 -44,44 -24.2769,0 -43.9999999,-19.7231 -43.9999999,-44 C 6.0000001,978.08529 25.7231,958.36217 50,958.36217 z m 2,4.25 0,18.75 14.1562,0 c -0.8442,-2.86329 -1.8538,-5.50164 -3,-7.8125 C 60.0647,967.31622 56.1382,963.54269 52,962.61217 z m -4,0 c -4.1382,0.93052 -8.0647,4.70405 -11.1562,10.9375 -1.1462,2.31086 -2.1558,4.94921 -3,7.8125 l 14.1562,0 0,-18.75 z m 13.5625,1.46875 c 1.9521,2.11752 3.6816,4.7143 5.1563,7.6875 1.4183,2.85973 2.6261,6.09247 3.5937,9.59375 l 13.75,0 c -5.0755,-8.22139 -13.0496,-14.4384 -22.5,-17.28125 z m -23.125,0 c -9.4504,2.84285 -17.4245,9.05986 -22.5,17.28125 l 13.75,0 c 0.9676,-3.50128 2.1754,-6.73402 3.5937,-9.59375 1.4747,-2.9732 3.2042,-5.56998 5.1563,-7.6875 z m 47.7813,21.28125 -14.9376,0 c 0.9857,4.6495 1.5685,9.70863 1.6876,15.00003 l 16.9687,0 c -0.2624,-5.35058 -1.5609,-10.40724 -3.7187,-15.00003 z m -19.0313,0 -15.1875,0 0,15.00003 16.9688,0 c -0.127,-5.34165 -0.753,-10.41526 -1.7813,-15.00003 z m -19.1875,0 -15.1875,0 c -1.0283,4.58477 -1.6543,9.65838 -1.7813,15.00003 l 16.9688,0 0,-15.00003 z m -19.2812,0 -14.9376,0 c -2.1578,4.59279 -3.4563,9.64945 -3.7187,15.00003 l 16.9687,0 c 0.1191,-5.2914 0.7019,-10.35053 1.6876,-15.00003 z m 61.2187,19.00003 -16.9687,0 c -0.1176,5.3002 -0.7001,10.3493 -1.6876,15 l 14.9376,0 c 2.1506,-4.5861 3.4568,-9.6594 3.7187,-15 z m -20.9687,0 -16.9688,0 0,15 15.1875,0 c 1.0285,-4.59 1.656,-9.6523 1.7813,-15 z m -20.9688,0 -16.9688,0 c 0.1253,5.3477 0.7528,10.41 1.7813,15 l 15.1875,0 0,-15 z m -20.9688,0 -16.9687,0 c 0.2619,5.3406 1.5681,10.4139 3.7187,15 l 14.9376,0 c -0.9875,-4.6507 -1.57,-9.6998 -1.6876,-15 z m 57.0313,19 -13.75,0 c -0.9676,3.4961 -2.1754,6.7027 -3.5937,9.5625 -1.4748,2.9734 -3.204,5.6269 -5.1563,7.75 9.4504,-2.8429 17.4245,-9.0911 22.5,-17.3125 z m -17.9063,0 -14.1562,0 0,18.7812 c 4.1382,-0.9305 8.0647,-4.7353 11.1562,-10.9687 1.15,-2.3186 2.1541,-4.9381 3,-7.8125 z m -18.1562,0 -14.1562,0 c 0.8459,2.8744 1.85,5.4939 3,7.8125 3.0915,6.2334 7.018,10.0382 11.1562,10.9687 l 0,-18.7812 z m -18.3125,0 -13.75,0 c 5.0755,8.2214 13.0496,14.4696 22.5,17.3125 -1.9523,-2.1231 -3.6815,-4.7766 -5.1563,-7.75 -1.4183,-2.8598 -2.6261,-6.0664 -3.5937,-9.5625 z"
       fill="#000000"
       fill-opacity="1"
       stroke="none"
       marker="none"
       visibility="visible"
       display="inline"
       overflow="visible"
       id="path2" />
  </g>
</svg>
