<svg xmlns="http://www.w3.org/2000/svg" xmlns:xlink="http://www.w3.org/1999/xlink" version="1.1" x="0px" y="0px" viewBox="0 0 100 125" enable-background="new 0 0 100 100" xml:space="preserve"><g><g><path d="M50,5C25.187,5,5,25.187,5,50s20.187,45,45,45s45-20.187,45-45S74.813,5,50,5z M79.18,59.45    c0,10.879-8.851,19.73-19.73,19.73h-18.9c-10.879,0-19.73-8.851-19.73-19.73v-18.9c0-10.879,8.851-19.73,19.73-19.73h18.9    c10.879,0,19.73,8.851,19.73,19.73V59.45z"/><rect x="63.32" y="30.56" width="6.06" height="6.06"/><path d="M50,60.78c5.944,0,10.78-4.836,10.78-10.78c0-2.212-0.668-4.341-1.931-6.158c-2.02-2.893-5.328-4.622-8.849-4.622    s-6.829,1.729-8.85,4.625c-1.262,1.814-1.93,3.943-1.93,6.155C39.22,55.944,44.056,60.78,50,60.78z"/><path d="M64.78,50c0,8.149-6.63,14.78-14.78,14.78S35.22,58.149,35.22,50c0-1.832,0.34-3.62,0.986-5.3H24.82v14.75    c0,8.673,7.057,15.73,15.73,15.73h18.9c8.673,0,15.73-7.057,15.73-15.73V44.7H63.794C64.44,46.38,64.78,48.168,64.78,50z"/></g></g><text x="0" y="115" fill="#000000" font-size="5px" font-weight="bold" font-family="'Helvetica Neue', Helvetica, Arial-Unicode, Arial, Sans-serif">Created by Maxim Kulikov</text><text x="0" y="120" fill="#000000" font-size="5px" font-weight="bold" font-family="'Helvetica Neue', Helvetica, Arial-Unicode, Arial, Sans-serif">from the Noun Project</text></svg>